<?xml version="1.0" encoding="UTF-8" standalone="no"?>
<!-- Created with Inkscape (http://www.inkscape.org/) -->

<svg
   version="1.1"
   id="svg1"
   width="256"
   height="256"
   viewBox="0 0 256 256"
   sodipodi:docname="logo.svg"
   inkscape:version="1.4 (e7c3feb100, 2024-10-09)"
   xmlns:inkscape="http://www.inkscape.org/namespaces/inkscape"
   xmlns:sodipodi="http://sodipodi.sourceforge.net/DTD/sodipodi-0.dtd"
   xmlns:xlink="http://www.w3.org/1999/xlink"
   xmlns="http://www.w3.org/2000/svg"
   xmlns:svg="http://www.w3.org/2000/svg">
  <defs
     id="defs1">
    <linearGradient
       id="linearGradient24"
       inkscape:collect="always">
      <stop
         style="stop-color:#63e3f0;stop-opacity:1;"
         offset="0"
         id="stop25" />
      <stop
         style="stop-color:#73d76b;stop-opacity:1;"
         offset="1"
         id="stop26" />
    </linearGradient>
    <radialGradient
       inkscape:collect="always"
       xlink:href="#linearGradient24"
       id="radialGradient26"
       cx="982.86096"
       cy="968.66766"
       fx="982.86096"
       fy="968.66766"
       r="702.97162"
       gradientTransform="matrix(0.14997829,0,0,0.14431392,-18.792818,-11.680708)"
       gradientUnits="userSpaceOnUse" />
  </defs>
  <sodipodi:namedview
     id="namedview1"
     pagecolor="#ffffff"
     bordercolor="#000000"
     borderopacity="0.25"
     inkscape:showpageshadow="2"
     inkscape:pageopacity="0.0"
     inkscape:pagecheckerboard="0"
     inkscape:deskcolor="#d1d1d1"
     showgrid="false"
     inkscape:zoom="2.6770842"
     inkscape:cx="173.88321"
     inkscape:cy="121.77428"
     inkscape:window-width="1707"
     inkscape:window-height="999"
     inkscape:window-x="0"
     inkscape:window-y="0"
     inkscape:window-maximized="1"
     inkscape:current-layer="g1" />
  <g
     inkscape:groupmode="layer"
     inkscape:label="Image"
     id="g1">
    <path
       style="fill:url(#radialGradient26);fill-opacity:1;fill-rule:nonzero;stroke-width:0.264155"
       d="m 30.316702,225.46566 v -4.0944 h 4.09441 4.09441 v 4.0944 4.0944 h -4.09441 -4.09441 z m 12.72273,-6.934 0.0888,-4.1605 4.16045,-0.073 4.16044,-0.073 v 4.2332 4.2332 h -4.24926 -4.24926 z m 91.750728,0.707 c -6.71222,-0.5327 -12.02705,-1.4918 -18.26365,-3.296 -8.90739,-2.5767 -19.027378,-7.0896 -24.709448,-11.0189 l -1.50069,-1.0377 -1.79569,0.884 -1.79569,0.884 h -2.65267 -2.65266 l -1.76028,-0.8666 -1.76027,-0.8666 -1.18483,-1.3178 c -1.45935,-1.6231 -2.21515,-3.1444 -2.60574,-5.2446 l -0.29945,-1.6102 0.28992,-1.559 c 0.15946,-0.8574 0.62235,-2.2378 1.02865,-3.0676 l 0.73873,-1.5087 1.56844,-1.4194 c 0.9053,-0.8192 2.19331,-1.6676 3.04635,-2.0065 l 1.4779,-0.5871 2.25172,-0.011 2.25171,-0.011 1.76818,0.8705 c 2.26158,1.1134 4.03573,2.8929 5.05428,5.0694 l 0.80289,1.7158 0.0112,2.2473 c 0.006,1.2361 -0.081,2.6808 -0.19376,3.2105 l -0.20494,0.9632 2.18611,1.3565 c 6.418238,3.9825 15.065728,7.7041 23.054378,9.9219 11.58196,3.2155 25.59441,4.0789 36.45347,2.2463 22.4985,-3.797 41.7019,-15.4042 55.4307,-33.5043 l 2.3355,-3.0792 -34.7546,-0.132 -34.7546,-0.1321 -0.7324,-0.7324 -0.73239,-0.7324 -0.0684,-43.71471 -0.0684,-43.714668 0.38903,-0.93111 0.38905,-0.93111 0.9276,-0.38759 0.92764,-0.38758 39.80967,0.0669 39.8098,0.0669 1.1229,2.57552 c 0.6176,1.41653 1.0418,2.58922 0.9427,2.60598 -0.099,0.0168 -0.2992,0.0581 -0.4445,0.0919 -0.1452,0.0337 -0.9476,0.0795 -1.783,0.1016 l -1.5189,0.0405 v 3.69818 3.69817 h 3.2458 3.2457 l 0.8341,2.575518 c 2.3637,7.29886 3.6199,15.02826 3.9198,24.11802 l 0.1783,5.40134 -0.3135,3.96234 c -0.5293,6.69258 -1.2568,11.11661 -2.7799,16.90594 -4.4049,16.74276 -14.0532,32.91276 -26.4098,44.26126 -17.6826,16.2398 -39.0573,24.6827 -62.06257,24.5143 -2.7764,-0.02 -6.2367,-0.1313 -7.68955,-0.2466 z m 17.56636,-51.8871 v -3.8303 h -2.3774 -2.3774 v 3.8303 3.8302 h 2.3774 2.3774 z m 12.8848,-0.066 0.073,-3.7642 h -3.7054 -3.7055 v 3.7642 3.7642 h 3.6314 3.6314 z m 13.0024,0.062 v -3.8266 h -3.8585 -3.8585 l 0.1603,0.4178 c 0.088,0.2299 0.1603,1.9312 0.1603,3.7808 v 3.3629 l 3.6982,0.046 3.6982,0.046 z m 11.4247,3.5716 h 1.7831 v -1.9151 c 0,-1.0533 -0.078,-2.7175 -0.1703,-3.6982 l -0.1684,-1.783 h -3.6592 -3.66 v 3.6761 3.6762 l 0.3302,0.1499 c 0.1816,0.082 1.1028,0.093 2.0472,0.024 0.9444,-0.069 2.5194,-0.1269 3.5001,-0.1279 z m 14.1984,0.1 0.3962,-0.096 0.082,-3.7009 0.082,-3.7009 h -3.8459 -3.846 v 3.6541 c 0,2.0098 0.087,3.7413 0.1936,3.8478 0.1892,0.1892 6.1542,0.1856 6.9386,0 z m 13.2298,-0.2105 c 0.061,-0.06 0.074,-1.7243 0.03,-3.6982 l -0.08,-3.589 h -3.6839 -3.6839 v 3.6982 3.6981 h 3.6541 c 2.0098,0 3.7037,-0.049 3.7643,-0.1091 z m 7.0502,-16.07036 c 2.9009,-8.64153 4.2759,-17.39273 4.2924,-27.31953 0.013,-7.73177 -0.6863,-13.8346 -2.4031,-20.97578 l -0.7989,-3.32285 -38.8838,-0.0391 -38.8838,-0.0391 0.071,12.34319 0.071,12.34319 6.1096,-0.082 6.1096,-0.082 0.7642,0.31653 c 1.0596,0.43893 1.5356,1.22412 1.5356,2.5331 v 1.11521 l -0.6373,0.74114 -0.6374,0.74116 h -6.6268 -6.6268 v 12.48135 12.48134 h 37.7294 37.7295 z m -53.3589,-5.89299 c -0.3958,-0.21485 -0.84,-0.61546 -0.9871,-0.89023 l -0.2674,-0.49965 -0.011,-16.98332 -0.011,-16.98333 0.8048,-0.80485 0.8049,-0.80485 1.1176,0.014 1.1175,0.014 5.4152,2.99915 c 20.7914,11.51512 24.4467,13.61848 24.9732,14.37009 0.4936,0.70476 0.4922,1.83857 0,2.79719 l -0.3893,0.75282 -2.5824,1.38362 c -1.4204,0.76101 -3.8306,2.06691 -5.3561,2.90202 -14.8886,8.15062 -22.5467,12.1461 -23.2579,12.13449 -0.3565,-0.006 -0.9721,-0.18635 -1.368,-0.40119 z m 6.0221,-7.81575 c 0.8612,-0.45716 5.013,-2.70463 9.2263,-4.99441 4.2133,-2.28976 8.1063,-4.37457 8.6511,-4.63293 0.5448,-0.25834 0.9906,-0.54909 0.9906,-0.64609 0,-0.097 -2.9421,-1.82062 -6.5379,-3.83028 -7.1723,-4.00849 -12.5834,-7.11069 -13.3964,-7.68012 -0.2878,-0.20159 -0.6792,-0.36653 -0.8698,-0.36653 h -0.3464 l 0.1194,0.72643 c 0.066,0.39953 0.1291,5.57037 0.1411,11.49076 0.012,5.92038 0.1194,10.76434 0.2389,10.76434 0.1195,0 0.9219,-0.37402 1.7831,-0.83117 z m -24.4535,-47.113038 v -3.83026 h -2.3774 -2.3774 v 3.83026 3.83025 h 2.3774 2.3774 z m 12.9436,0 v -3.83026 h -3.6542 c -2.0097,0 -3.7036,0.0492 -3.7642,0.10922 -0.061,0.0601 -0.074,1.78368 -0.03,3.83025 l 0.08,3.72104 h 3.6842 3.6843 z m 12.9822,0.99058 c 0.021,-1.56182 0.045,-3.25572 0.052,-3.76422 l 0.013,-0.92454 -3.8161,-0.0728 -3.8161,-0.0728 0.046,3.63886 c 0.025,2.00137 0.055,3.72801 0.066,3.83697 0.011,0.10897 1.6844,0.19812 3.7184,0.19812 h 3.6982 z m 12.9666,2.50948 c 0.065,-0.18161 0.1075,-1.87551 0.094,-3.76422 l -0.024,-3.43402 -3.7642,-0.0733 -3.7643,-0.0733 v 3.8375 3.83751 h 3.67 3.6699 z m 13.1462,-3.50006 v -3.83026 h -3.8303 -3.8302 v 3.83026 3.83025 h 3.8302 3.8303 z m 12.9436,0 v -3.83026 h -3.8374 -3.8374 l 0.029,3.83026 0.03,3.83025 h 3.8079 3.8079 z M 103.98496,190.62896 c -2.2762,-0.8134 -3.89665,-2.2844 -5.011288,-4.5489 l -0.63696,-1.2941 v -2.2453 -2.2453 l 0.6961,-1.4846 c 0.87803,-1.8726 2.256178,-3.4075 3.789888,-4.2212 l 1.19336,-0.6331 V 127.9759 81.995302 l -0.93831,-0.44745 c -1.48735,-0.70927 -3.436328,-2.7074 -4.112938,-4.21666 l -0.61743,-1.37724 -0.005,-2.24532 -0.005,-2.24532 0.73973,-1.50637 c 1.427758,-2.90746 4.624598,-4.96544 7.713248,-4.96544 3.00403,0 6.2919,2.06911 7.72021,4.85845 l 0.69087,1.3492 0.1187,2.15232 0.11869,2.15231 -0.66843,1.46005 c -0.85239,1.86186 -2.64359,3.81746 -4.08375,4.45857 l -1.12266,0.49977 -0.0331,7.97834 c -0.0182,4.38809 -0.0498,25.109318 -0.0703,46.047198 l -0.0372,38.06885 1.40402,0.7351 c 1.57593,0.8251 2.93401,2.2722 3.82033,4.0708 l 0.59561,1.2087 v 2.5095 2.5095 l -0.78356,1.4146 c -0.999,1.8036 -2.70841,3.3077 -4.53664,3.9918 l -1.43558,0.5371 -1.77314,-0.012 c -0.97522,-0.01 -2.20317,-0.1653 -2.72878,-0.3531 z m 4.54486,-5.5207 c 1.08731,-0.7328 1.55276,-1.5925 1.55792,-2.8775 l 0.004,-0.9703 -0.67986,-0.808 c -0.37392,-0.4444 -1.14556,-0.9475 -1.71475,-1.1181 l -1.0349,-0.31 -1.05307,0.4749 c -1.1968,0.5397 -1.74699,1.2455 -1.98043,2.5405 l -0.1617,0.8971 0.49508,0.9246 c 0.53889,1.0063 1.89875,1.848 2.98674,1.8486 0.37805,0 1.08954,-0.2706 1.58108,-0.6018 z m 0.0522,-108.534228 c 0.73242,-0.39198 1.50753,-1.83697 1.50863,-2.81248 0.002,-1.88591 -1.37221,-3.22278 -3.31312,-3.22278 -1.74347,0 -3.28978,1.48383 -3.28978,3.15686 0,1.08777 1.27661,2.84308 2.3774,3.26889 0.48422,0.1873 2.06061,-0.0393 2.71687,-0.39049 z M 23.184522,169.33286 v -5.2831 h 5.28311 5.2831 v 5.2831 5.2831 h -5.2831 -5.28311 z m 69.41264,-12.0765 c -0.39634,-0.0597 -0.96296,-0.41669 -1.25917,-0.79324 l -0.53854,-0.68465 0.0705,-22.03913 0.0705,-22.03913 0.62362,-0.50491 0.62361,-0.50492 h 1.4356 1.4356 l 0.64838,0.64839 0.64838,0.64838 v 22.02293 22.02295 l -0.59435,0.54171 c -0.62923,0.5735 -1.96782,0.86188 -3.16405,0.68162 z m 25.318428,-3.83883 -0.65848,-0.59437 -0.1135,-17.56632 c -0.0657,-10.16169 -0.0126,-17.83564 0.12583,-18.2052 0.36881,-0.98452 1.01715,-1.32475 2.54192,-1.3339 l 1.39882,-0.008 0.64838,0.64838 0.64838,0.64838 v 17.85451 17.8545 l -0.64838,0.6484 -0.64838,0.64837 h -1.31805 -1.31806 z m -38.862208,-7.83068 c -0.29057,-0.12637 -0.7339,-0.45847 -0.98518,-0.73803 l -0.45687,-0.50829 -0.0714,-5.62428 -0.0714,-5.62427 -7.1322,-0.0737 c -3.9227,-0.0405 -7.34461,-0.16218 -7.60423,-0.27037 -0.59851,-0.24936 -1.24497,-1.48418 -1.24497,-2.37798 0,-1.00603 0.72052,-2.23105 1.4827,-2.52083 0.36572,-0.13904 3.80725,-0.2528 7.64786,-0.2528 h 6.98292 v -8.72279 -8.72279 l -0.72643,-0.31308 c -2.5123,-1.08277 -4.20097,-2.99339 -4.96327,-5.61563 l -0.45072,-1.55042 0.13805,-1.5224 c 0.27466,-3.029098 2.18397,-5.814728 4.88335,-7.124688 l 1.2511,-0.60713 1.98116,-0.10375 1.98117,-0.10375 1.49171,0.56024 c 2.07401,0.77892 3.72202,2.31388 4.77014,4.44293 l 0.86609,1.75928 -0.0204,1.991028 -0.0204,1.99104 -0.71245,1.49632 c -0.85243,1.79036 -2.40554,3.41243 -4.01193,4.19007 l -1.17413,0.56839 v 17.1005 17.10049 l -0.63443,0.59602 c -0.69091,0.64904 -2.34671,0.9499 -3.19583,0.58064 z m 3.19995,-41.10915 c 2.42294,-1.84807 1.00777,-5.938458 -2.05456,-5.938458 -1.47445,0 -3.00544,1.42139 -3.12973,2.905708 -0.12072,1.4416 0.039,1.93771 0.9013,2.80004 l 0.89813,0.89813 h 1.25622 1.25622 z m 49.328518,36.42099 c -0.75775,-0.16594 -1.35351,-0.87097 -1.41922,-1.67952 -0.0295,-0.36321 -0.0405,-8.2401 -0.0244,-17.50418 l 0.0292,-16.84379 0.8585,-0.52344 c 0.47218,-0.28789 1.3024,-0.52389 1.84493,-0.52443 l 0.98642,-0.001 0.79573,0.72643 0.79574,0.72643 0.019,17.27675 0.019,17.27674 -0.51683,0.51682 c -0.51976,0.51978 -2.25034,0.80232 -3.38806,0.55318 z m -81.069258,-8.93178 -0.64838,-0.64839 v -4.96655 c 0,-9.49576 1.68977,-19.76103 4.7147,-28.641568 6.20958,-18.22996 17.05028,-33.04154 32.79537,-44.8081 7.6867,-5.7444 18.443728,-11.15705 27.604228,-13.88972 10.07152,-3.00443 17.76622,-4.13479 28.14676,-4.13479 11.74345,0 21.78175,1.80089 32.74105,5.87386 4.195,1.55906 10.4273,4.48597 13.1031,6.15368 1.0414,0.64913 1.9791,1.18023 2.0836,1.18023 0.1046,0 0.5323,-0.28794 0.9506,-0.63987 0.4182,-0.35193 1.4458,-0.89951 2.2834,-1.21685 l 1.523,-0.57698 1.9812,0.003 1.9812,0.003 1.5194,0.57242 c 4.0616,1.53014 6.5992,5.23449 6.6087,9.64741 v 2.11325 l -0.5887,1.52802 -0.5887,1.52803 -1.4169,1.53046 -1.4169,1.53046 -1.9287,0.90041 -1.9286,0.90041 -2.3774,-7.5e-4 -2.3774,-7.4e-4 -1.5151,-0.70591 c -3.0065,-1.40081 -4.7396,-3.29514 -5.7529,-6.28823 l -0.5805,-1.71468 0.1469,-1.84909 c 0.081,-1.017 0.1825,-2.06493 0.226,-2.32874 l 0.079,-0.47965 -3.6982,-1.96084 c -9.5661,-5.07217 -19.3449,-8.24958 -29.8495,-9.69906 l -3.9624,-0.54674 -7.52837,-0.016 -7.52843,-0.016 -2.50947,0.3421 c -27.41063,3.73681 -49.953648,17.90218 -64.388668,40.46016 -8.2335,12.8667 -12.71083,28.012358 -13.19371,44.630978 l -0.16469,5.66804 -0.60564,0.60565 -0.60564,0.60563 h -1.34479 -1.34479 z M 215.88952,58.129392 c -0.091,-0.14714 -0.1345,-3.06155 -0.097,-6.47646 l 0.069,-6.20893 h 6.5548 6.5548 l -0.071,6.40577 -0.071,6.40577 -6.3873,0.0707 -6.3873,0.0707 z m -3.5698,-25.90072 v -5.56555 l 5.4813,0.079 5.4812,0.079 v 5.41518 5.41519 l -5.4812,0.0714 -5.4813,0.0714 z"
       id="path1" />
  </g>
</svg>
